<svg width="900" height="900" viewBox="0 0 900 900" fill="none" xmlns="http://www.w3.org/2000/svg">
  <defs>
    <linearGradient id="body" x1="0.1" y1="0.1" x2="0.9" y2="0.9">
      <stop offset="0%" stop-color="#9ad36a"/>
      <stop offset="60%" stop-color="#5fb75e"/>
      <stop offset="100%" stop-color="#3f8f4f"/>
    </linearGradient>
    <linearGradient id="head" x1="0.2" y1="0.1" x2="0.8" y2="0.9">
      <stop offset="0%" stop-color="#b3e57a"/>
      <stop offset="70%" stop-color="#4ea65a"/>
      <stop offset="100%" stop-color="#3a7f4a"/>
    </linearGradient>
    <linearGradient id="tail" x1="0.2" y1="0.2" x2="0.8" y2="0.9">
      <stop offset="0%" stop-color="#ff8a5b"/>
      <stop offset="60%" stop-color="#e45b45"/>
      <stop offset="100%" stop-color="#c54a3f"/>
    </linearGradient>
    <radialGradient id="belly" cx="0.4" cy="0.2" r="0.8">
      <stop offset="0%" stop-color="#f7c56e"/>
      <stop offset="70%" stop-color="#e07a3c"/>
      <stop offset="100%" stop-color="#c25a2f"/>
    </radialGradient>
  </defs>

  <path
    d="M258 585C200 520 198 430 252 350C320 250 458 218 590 260C690 292 754 380 744 470C736 544 690 612 620 646C542 684 438 684 356 642C317 622 284 606 258 585Z"
    fill="url(#body)"
  />
  <path
    d="M434 620C470 664 524 692 592 700C664 710 726 694 770 664C756 632 730 602 688 576C612 530 556 498 472 524C438 536 420 566 434 620Z"
    fill="url(#tail)"
  />
  <path
    d="M346 396C382 320 454 282 548 282C626 282 686 318 704 370C720 416 694 470 640 494C568 528 470 520 404 478C360 450 336 426 346 396Z"
    fill="url(#head)"
  />
  <path
    d="M394 518C418 570 468 604 528 616C590 628 648 614 690 584"
    stroke="url(#belly)"
    stroke-width="28"
    stroke-linecap="round"
  />
  <path
    d="M470 578C514 592 556 590 600 574"
    stroke="#2f6f44"
    stroke-width="18"
    stroke-linecap="round"
  />
  <ellipse cx="612" cy="364" rx="72" ry="70" fill="#ffffff"/>
  <circle cx="612" cy="364" r="30" fill="#2b2d42"/>
  <circle cx="624" cy="346" r="10" fill="#ffffff"/>
  <path d="M522 434C546 462 586 474 636 468" stroke="#2b2d42" stroke-width="14" stroke-linecap="round"/>
  <path d="M420 456C382 488 336 510 288 522" stroke="#2f6f44" stroke-width="18" stroke-linecap="round"/>
  <path d="M680 392C704 398 726 410 744 428" stroke="#2f6f44" stroke-width="16" stroke-linecap="round"/>
</svg>
